<svg width="20" height="21" viewBox="0 0 20 21" fill="none" xmlns="http://www.w3.org/2000/svg">
<path d="M0.5 8.84694C0.5 4.26672 4.22735 0.539368 8.80757 0.539368C13.3881 0.539368 17.1151 4.26671 17.1151 8.84694C17.1151 13.4274 13.3881 17.1545 8.80757 17.1545C4.22734 17.1545 0.5 13.4274 0.5 8.84694ZM1.12601 8.84698C1.12601 13.083 4.57155 16.5285 8.80757 16.5285C13.0436 16.5285 16.4891 13.083 16.4891 8.84694C16.4891 4.61092 13.0436 1.16538 8.80757 1.16538C4.57155 1.16538 1.12601 4.61096 1.12601 8.84698Z" fill="#AEAEAE" stroke="white"/>
<path d="M19.4082 19.0051L19.4084 19.0052C19.5305 19.1273 19.5305 19.3254 19.4084 19.4474L19.4083 19.4475C19.3469 19.5089 19.2675 19.5393 19.187 19.5393C19.1062 19.5393 19.0271 19.509 18.9657 19.4476L14.3045 14.7863L14.3043 14.7862C14.1822 14.6641 14.1822 14.466 14.3043 14.344L14.3045 14.3438C14.4268 14.2215 14.6246 14.2215 14.747 14.3438L19.4082 19.0051Z" fill="#AEAEAE" stroke="white"/>
</svg>
